<?xml version="1.0" standalone="no"?>
<!DOCTYPE svg PUBLIC "-//W3C//DTD SVG 20010904//EN"
 "http://www.w3.org/TR/2001/REC-SVG-20010904/DTD/svg10.dtd">
<svg version="1.0" xmlns="http://www.w3.org/2000/svg"
 width="150.000000pt" height="150.000000pt" viewBox="0 0 150.000000 150.000000"
 preserveAspectRatio="xMidYMid meet">

<g transform="translate(0.000000,150.000000) scale(0.100000,-0.100000)"
fill="#000000" stroke="none">
<path d="M0 1258 l0 -243 24 58 c71 171 194 313 347 397 l54 30 -212 0 -213 0
0 -242z"/>
<path d="M1146 1449 c161 -105 273 -252 335 -439 l18 -55 0 273 1 272 -216 0
-217 0 79 -51z"/>
<path d="M779 1473 c-1 -5 -1 -15 0 -25 3 -22 -18 -33 -25 -14 -8 21 -26 20
-22 0 2 -10 -3 -19 -9 -21 -7 -3 -13 2 -13 10 0 8 -7 20 -15 27 -19 16 -20 -2
-1 -45 7 -16 9 -34 5 -40 -71 -93 -109 -115 -201 -115 -44 0 -48 -2 -48 -24 0
-39 19 -45 131 -44 66 0 114 -4 129 -12 13 -7 40 -10 64 -7 39 5 40 5 16 -8
-33 -19 -55 -18 -95 1 -32 15 -36 14 -65 -3 -21 -12 -30 -24 -26 -35 5 -20
-10 -25 -17 -5 -3 8 -10 7 -26 -7 -25 -23 -26 -34 -4 -58 18 -20 4 -25 -16 -5
-10 10 -15 8 -27 -7 -20 -28 -17 -56 9 -84 l22 -25 -22 12 c-20 10 -23 9 -23
-6 0 -24 36 -82 55 -89 8 -4 15 -12 15 -19 0 -19 36 -39 115 -65 93 -30 130
-53 149 -94 40 -85 1 -163 -87 -173 -64 -7 -103 10 -117 52 -20 60 24 113 80
98 26 -7 26 -19 0 -26 -24 -6 -27 -39 -5 -57 33 -28 67 15 53 67 -12 46 -57
68 -104 53 -43 -15 -64 -44 -64 -93 0 -82 76 -157 159 -157 81 1 165 55 190
123 32 84 -5 172 -114 275 -62 58 -75 76 -75 102 0 24 7 35 33 50 41 25 64 25
79 0 7 -11 16 -20 20 -20 13 0 9 38 -4 42 -17 6 17 58 38 58 13 0 14 7 9 39
-5 32 -3 43 14 60 22 22 19 46 -6 55 -11 5 -13 15 -8 46 6 36 5 40 -20 46 -27
7 -54 52 -37 63 13 9 32 47 32 65 0 23 -27 20 -33 -4 -5 -18 -29 -30 -26 -12
3 18 -2 32 -11 32 -5 0 -7 -7 -4 -15 4 -10 0 -15 -11 -15 -11 0 -15 5 -11 15
6 18 -2 45 -15 45 -5 0 -10 -3 -10 -7z"/>
<path d="M942 1314 c1 -9 9 -19 16 -22 9 -3 13 2 10 14 -1 9 -9 19 -16 22 -9
3 -13 -2 -10 -14z"/>
<path d="M967 1214 c-9 -10 4 -34 19 -34 16 0 16 2 8 24 -6 17 -16 20 -27 10z"/>
<path d="M950 1066 c0 -15 18 -31 26 -23 7 7 -7 37 -17 37 -5 0 -9 -6 -9 -14z"/>
<path d="M1486 497 c-8 -44 -76 -183 -116 -238 -53 -75 -142 -160 -219 -210
l-74 -49 212 0 211 0 0 265 c0 146 -2 265 -4 265 -2 0 -7 -15 -10 -33z"/>
<path d="M0 238 l0 -238 202 0 201 0 -63 41 c-135 87 -249 222 -312 368 l-27
66 -1 -237z"/>
<path d="M258 379 c-21 -12 -24 -69 -6 -87 21 -21 57 -14 70 13 l11 25 11 -23
c15 -30 69 -31 75 -2 3 19 3 19 -16 2 -18 -15 -22 -16 -32 -3 -7 8 -11 25 -9
38 2 18 9 23 31 21 35 -2 35 15 0 23 -20 5 -30 2 -44 -15 l-18 -22 -21 21
c-23 23 -28 24 -52 9z m40 -46 c-4 -43 -25 -55 -34 -19 -8 33 1 56 21 56 13 0
15 -9 13 -37z"/>
<path d="M439 363 c-2 -16 -3 -40 -1 -55 3 -27 5 -28 67 -28 60 0 63 1 58 23
-3 16 -2 18 5 8 5 -7 15 -10 21 -7 6 4 11 0 11 -8 0 -12 10 -16 38 -16 37 0
38 1 35 33 l-3 32 17 -32 c26 -51 43 -42 43 22 0 58 -19 79 -21 23 l-1 -33
-14 33 c-20 46 -43 43 -38 -5 3 -21 1 -44 -4 -52 -13 -19 -35 -3 -29 21 3 11
0 21 -9 25 -8 3 -14 14 -14 24 0 10 -7 19 -15 19 -8 0 -15 -7 -15 -15 0 -9 -7
-18 -15 -21 -9 -4 -13 -13 -10 -24 6 -20 -20 -47 -30 -30 -4 7 -12 7 -24 0
-20 -10 -31 -4 -31 18 0 8 6 12 15 9 8 -4 17 -2 21 4 3 6 -3 13 -15 16 -12 3
-21 10 -21 15 0 6 11 7 25 4 18 -5 25 -2 25 9 0 10 -10 15 -34 15 -29 0 -34
-4 -37 -27z m146 -23 c3 -5 1 -10 -4 -10 -6 0 -11 5 -11 10 0 6 2 10 4 10 3 0
8 -4 11 -10z"/>
<path d="M788 359 c-3 -17 -3 -42 0 -55 6 -32 32 -31 32 1 0 14 5 25 10 25 6
0 10 -11 10 -25 0 -19 5 -25 21 -25 12 0 17 4 13 11 -3 6 -6 31 -6 55 1 32 -3
44 -13 44 -9 0 -15 -10 -15 -25 0 -31 -17 -33 -22 -3 -5 34 -25 32 -30 -3z"/>
<path d="M896 374 c-29 -29 -13 -94 24 -94 29 0 50 11 50 26 0 8 5 14 11 14 6
0 9 -9 6 -20 -4 -15 0 -20 15 -20 15 0 18 5 13 20 -4 11 -2 20 4 20 6 0 13
-11 17 -23 5 -22 9 -24 57 -19 32 2 57 11 65 21 13 17 10 22 -44 59 -17 12
-16 12 8 7 35 -7 47 12 13 21 -53 13 -75 -40 -25 -59 17 -6 30 -15 30 -19 0
-15 -22 -19 -36 -7 -13 10 -17 10 -25 -2 -8 -12 -10 -12 -19 1 -5 8 -8 21 -5
28 3 6 8 19 11 27 4 9 -3 19 -19 26 -32 15 -57 6 -57 -20 0 -11 -4 -23 -10
-26 -5 -3 -10 3 -10 14 0 19 -26 41 -49 41 -5 0 -17 -7 -25 -16z m51 -20 c7
-20 -14 -67 -27 -59 -17 10 -12 75 5 75 9 0 18 -7 22 -16z m93 1 c0 -8 -7 -15
-15 -15 -8 0 -15 7 -15 15 0 8 7 15 15 15 8 0 15 -7 15 -15z"/>
<path d="M1179 363 c-2 -16 -3 -40 -1 -55 3 -25 7 -28 43 -28 28 0 39 4 36 13
-2 6 -10 11 -16 10 -6 -2 -16 -4 -22 -5 -6 -2 -13 5 -14 15 -2 11 2 17 12 15
9 -2 18 3 21 10 2 8 -2 12 -13 10 -10 -2 -20 3 -23 11 -3 10 2 12 22 7 19 -5
26 -3 26 9 0 10 -10 15 -34 15 -29 0 -34 -4 -37 -27z"/>
<path d="M430 210 c0 -5 5 -10 10 -10 6 0 8 -11 4 -26 -5 -19 -4 -25 5 -20 6
4 11 15 11 25 0 24 10 32 24 18 7 -6 11 -22 9 -36 -4 -24 -3 -24 10 -9 10 13
17 14 25 6 8 -8 11 -6 10 8 0 10 1 26 3 34 3 12 -8 16 -53 18 -34 1 -58 -2
-58 -8z m100 -10 c0 -5 -4 -10 -10 -10 -5 0 -10 5 -10 10 0 6 5 10 10 10 6 0
10 -4 10 -10z"/>
<path d="M572 195 c-12 -14 -22 -30 -22 -35 0 -14 18 -12 23 3 3 9 7 9 20 -2
15 -12 17 -10 17 17 0 41 -12 47 -38 17z"/>
<path d="M627 188 c7 -40 11 -44 23 -32 7 7 6 19 -2 37 -18 37 -29 34 -21 -5z"/>
<path d="M666 204 c-9 -24 -7 -28 8 -14 13 10 14 7 10 -14 -4 -22 -1 -26 18
-26 19 0 20 2 8 11 -11 8 -12 12 -2 16 6 2 9 9 6 15 -4 6 0 14 7 19 10 6 4 9
-17 9 -20 0 -34 -6 -38 -16z"/>
<path d="M746 204 c-13 -34 -7 -54 17 -53 13 1 16 3 6 6 -11 3 -14 12 -11 33
5 32 -2 40 -12 14z"/>
<path d="M832 208 c-7 -7 -12 -22 -12 -35 0 -18 6 -23 25 -23 14 0 25 4 25 10
0 5 -6 7 -14 4 -8 -3 -17 0 -21 6 -10 16 14 40 32 33 11 -4 14 -2 9 5 -9 15
-29 15 -44 0z"/>
<path d="M902 198 c-26 -29 -32 -58 -6 -37 13 10 17 10 24 -1 14 -22 19 -8 12
28 l-7 34 -23 -24z"/>
<path d="M959 218 c0 -2 -2 -21 -4 -43 -4 -35 -3 -38 10 -22 8 12 15 14 20 8
3 -6 11 -11 17 -11 7 0 7 4 -1 13 -7 10 -7 17 0 24 15 15 3 33 -22 33 -10 0
-19 -1 -20 -2z"/>
<path d="M1023 188 c2 -24 7 -34 22 -36 17 -3 17 -1 5 7 -13 10 -13 12 0 21
13 9 13 10 0 10 -11 1 -10 4 4 15 19 14 19 15 -6 15 -23 0 -26 -4 -25 -32z"/>
</g>
</svg>
